<svg width="40" height="40" viewBox="0 0 40 40" fill="none" xmlns="http://www.w3.org/2000/svg">
  <!-- Background circle with gradient -->
  <defs>
    <linearGradient id="logoGradient" x1="0%" y1="0%" x2="100%" y2="100%">
      <stop offset="0%" style="stop-color:#a78bfa;stop-opacity:1" />
      <stop offset="100%" style="stop-color:#67e8f9;stop-opacity:1" />
    </linearGradient>
  </defs>

  <!-- Circular background -->
  <circle cx="20" cy="20" r="18" fill="url(#logoGradient)" opacity="0.2"/>

  <!-- Chef hat icon -->
  <path d="M20 10C18.5 10 17.2 10.8 16.5 12C15.8 11.2 14.7 10.7 13.5 10.7C11.6 10.7 10 12.3 10 14.2C10 14.5 10 14.8 10.1 15.1C8.9 15.9 8 17.3 8 19V26C8 27.1 8.9 28 10 28H30C31.1 28 32 27.1 32 26V19C32 17.3 31.1 15.9 29.9 15.1C30 14.8 30 14.5 30 14.2C30 12.3 28.4 10.7 26.5 10.7C25.3 10.7 24.2 11.2 23.5 12C22.8 10.8 21.5 10 20 10Z" fill="url(#logoGradient)"/>

  <!-- Chef hat details -->
  <rect x="10" y="24" width="20" height="4" rx="1" fill="white" opacity="0.3"/>

  <!-- Sparkle accent -->
  <circle cx="27" cy="13" r="1.5" fill="#fff" opacity="0.8"/>
  <circle cx="30" cy="16" r="1" fill="#fff" opacity="0.6"/>
</svg>
